<svg width="170" height="145" viewBox="0 0 170 145" fill="none" xmlns="http://www.w3.org/2000/svg">
<path fill-rule="evenodd" clip-rule="evenodd" d="M57.8796 141.35V133.081H18.1894V141.35C18.1894 143.177 27.0743 144.658 38.0345 144.658C48.9946 144.658 57.8796 143.177 57.8796 141.35Z" fill="#FF9B6D"/>
<path d="M38.0345 136.388C27.0743 136.388 18.1894 134.907 18.1894 133.08C18.1894 131.253 27.0743 129.773 38.0345 129.773C48.9946 129.773 57.8796 131.253 57.8796 133.08C57.8796 134.907 48.9946 136.388 38.0345 136.388Z" fill="#D6DCFF"/>
<path d="M38.0364 129.772C17.0295 129.772 0 112.743 0 91.7357C0 70.7287 17.0295 53.6992 38.0364 53.6992C59.0434 53.6992 76.0729 70.7287 76.0729 91.7357C76.0729 112.743 59.0434 129.772 38.0364 129.772Z" fill="#0ACC94"/>
<path d="M72.3684 63.3914C64.111 60.7903 59.6079 60.4445 58.8591 62.354C57.7359 65.2182 63.2009 67.5056 60.2031 70.7735C57.2053 74.0413 68.5832 73.7439 70.4758 78.8296C72.3684 83.9153 69.8018 86.0236 71.0851 88.4648C72.3684 90.906 75.0091 93.556 74.3007 95.6072" stroke="white" stroke-width="2" stroke-linecap="round"/>
<path fill-rule="evenodd" clip-rule="evenodd" d="M64.9014 85.9871C64.2356 85.5678 63.8079 88.5473 62.7179 90.7095C61.6279 92.8718 55.5577 94.5449 56.9337 96.6452C58.3097 98.7456 66.151 95.034 66.151 92.8718C66.151 90.7095 65.5671 86.4064 64.9014 85.9871Z" stroke="white" stroke-width="2" stroke-linecap="round"/>
<path fill-rule="evenodd" clip-rule="evenodd" d="M48.9965 115.076C43.8396 115.076 37.7294 118.816 32.9436 118.816C28.1578 118.816 29.1832 114.01 25.9831 115.076C22.7831 116.143 21.7755 115.101 18.9718 112.724C16.1681 110.346 19.6898 122.155 25.9831 123.097C32.2764 124.038 38.2933 124.015 41.9973 122.094C45.7013 120.173 46.042 118.816 48.9965 118.816C51.951 118.816 54.1534 115.076 48.9965 115.076Z" stroke="white" stroke-width="2" stroke-linecap="round"/>
<path fill-rule="evenodd" clip-rule="evenodd" d="M24.1901 71.0915C29.9612 72.4919 38.6979 68.6317 38.6979 73.0361C38.6979 77.4405 45.5104 79.5008 48.812 85.8527C52.1136 92.2045 44.9677 90.4677 31.5766 92.2045C18.1856 93.9414 43.5004 106.697 33.0615 105.971C22.6227 105.245 19.5127 99.561 14.4308 93.8656C9.34891 88.1703 11.3247 77.7071 7.84171 77.7071C4.35871 77.7071 8.19575 75.8826 8.83825 72.6226C9.48075 69.3626 8.28109 66.1035 10.1286 66.1035C11.9761 66.1035 18.4191 69.6911 24.1901 71.0915Z" stroke="white" stroke-width="2" stroke-linecap="round"/>
<path d="M38.0375 49.1992V49.1992C22.9096 52.5846 12.3114 66.2282 12.7731 81.7234L13.4124 103.178C13.8032 116.292 22.9217 127.523 35.6761 130.599" stroke="#1D70D3" stroke-width="8" stroke-linecap="round"/>
<path fill-rule="evenodd" clip-rule="evenodd" d="M110.108 114.263C101.089 113.863 95.2573 115.318 92.6122 118.629C88.6445 123.595 89.5852 134.814 110.108 135.997C123.79 136.786 123.79 129.541 110.108 114.263Z" fill="white" stroke="#4A4A4A" stroke-linecap="round" stroke-linejoin="round"/>
<path fill-rule="evenodd" clip-rule="evenodd" d="M83.7993 128.841H98.809V139.823H83.7993C80.7666 139.823 78.308 137.365 78.308 134.332C78.308 131.299 80.7666 128.841 83.7993 128.841Z" fill="#1D70D3"/>
<path fill-rule="evenodd" clip-rule="evenodd" d="M105.755 119.649C96.7358 119.249 90.9038 120.704 88.2587 124.015C84.291 128.981 85.2317 140.199 105.755 141.383C119.437 142.172 119.437 134.927 105.755 119.649Z" fill="white" stroke="#4A4A4A" stroke-linecap="round" stroke-linejoin="round"/>
<path fill-rule="evenodd" clip-rule="evenodd" d="M166.174 103.147V106.997C171.408 120.065 170.942 130.371 164.774 137.914C158.606 145.458 138.049 146.876 103.101 142.168L104.713 117.872L108.272 117.336L108.328 111.906L128.741 114.25L131.271 111.906L166.174 103.147Z" fill="#FFDC84"/>
<path fill-rule="evenodd" clip-rule="evenodd" d="M103.101 138.057L139.599 139.472C145.489 139.701 151.287 137.962 156.079 134.53C160.586 131.303 162.807 125.75 161.768 120.304L159.625 109.073" fill="#FFDC84"/>
<path d="M103.101 138.057L139.599 139.472C145.489 139.701 151.287 137.962 156.079 134.53C160.586 131.303 162.807 125.75 161.768 120.304L159.625 109.073" stroke="white" stroke-linecap="round" stroke-linejoin="round"/>
<path fill-rule="evenodd" clip-rule="evenodd" d="M142.247 47.002C147.581 49.9509 152.771 57.169 157.818 68.6563C165.389 85.8873 169.151 95.5822 168.078 100.875C167.005 106.167 140.149 114.16 129.98 112.956C119.811 111.753 123.442 89.0341 121.626 82.1902C119.811 75.3464 120.036 63.1153 126.278 57.1945C130.439 53.2473 135.762 49.8498 142.247 47.002Z" fill="white" stroke="#D6DCFF"/>
<path fill-rule="evenodd" clip-rule="evenodd" d="M109.725 74.4761L105.09 77.9769C91.5193 66.8407 82.3823 59.4073 77.6796 55.6766C75.4602 52.1028 73.4648 49.2115 71.6932 47.0026C69.9216 44.7936 68.8494 44.3967 68.4767 45.8117C68.9351 48.3791 69.3317 50.2634 69.6666 51.4645L61.7827 44.6497C61.2714 44.2077 60.4986 44.2639 60.0567 44.7752C60.0457 44.7879 60.0351 44.8008 60.0247 44.8138C59.55 45.4107 59.5073 46.2433 59.9183 46.8856L62.8482 51.4645L61.5348 50.6623C60.0845 49.7765 58.1908 50.234 57.305 51.6843C57.1454 51.9456 57.0257 52.2293 56.9499 52.526C56.3482 54.8792 57.4716 57.3332 59.6462 58.4154L69.6666 63.4027C85.1366 81.4549 95.3653 91.0662 100.353 92.2367C105.34 93.4071 111.799 90.7755 119.728 84.3417" fill="white"/>
<path d="M109.725 74.4761L105.09 77.9769C91.5193 66.8407 82.3823 59.4073 77.6796 55.6766C75.4602 52.1028 73.4648 49.2115 71.6932 47.0026C69.9216 44.7936 68.8494 44.3967 68.4767 45.8117C68.9351 48.3791 69.3317 50.2634 69.6666 51.4645L61.7827 44.6497C61.2714 44.2077 60.4986 44.2639 60.0567 44.7752C60.0457 44.7879 60.0351 44.8008 60.0247 44.8138C59.55 45.4107 59.5073 46.2433 59.9183 46.8856L62.8482 51.4645L61.5348 50.6623C60.0845 49.7765 58.1908 50.234 57.305 51.6843C57.1454 51.9456 57.0257 52.2293 56.9499 52.526C56.3482 54.8792 57.4716 57.3332 59.6462 58.4154L69.6666 63.4027C85.1366 81.4549 95.3653 91.0662 100.353 92.2367C105.34 93.4071 111.799 90.7755 119.728 84.3417" stroke="#4A4A4A" stroke-linecap="round" stroke-linejoin="round"/>
<path fill-rule="evenodd" clip-rule="evenodd" d="M119.489 14.0038C117.689 15.6556 116.789 17.8344 116.789 20.5402C116.789 24.5988 116.479 27.8743 114.918 28.8374C113.356 29.8005 110.473 31.285 112.904 32.675C111.157 35.4513 109.717 44.7705 117.962 46.5076L124.992 48.091L128.346 53.4899L140.471 44.3411C137.92 42.2688 136.083 39.9108 134.96 37.2671C138.988 36.8494 141.002 33.0345 141.002 25.8224C141.002 24.2766 138.94 17.0079 132.521 14.0038C130.404 13.0131 126.06 13.0131 119.489 14.0038Z" fill="white" stroke="#4A4A4A" stroke-linecap="round" stroke-linejoin="round"/>
<path fill-rule="evenodd" clip-rule="evenodd" d="M111.556 9.63982C112.705 12.5485 117.354 14.7113 125.502 16.128C125.013 19.6061 125.99 21.8386 128.433 22.8254C127.632 26.3051 126.321 32.4339 129.136 31.9436C131.951 31.4533 131.86 28.6257 134.765 28.6257C137.67 28.6257 135.532 35.3734 131.651 36.2069C133.414 41.0525 136.2 43.7558 140.011 44.3168C140.838 36.0814 151.932 29.208 151.149 21.6054C150.627 16.5371 148.692 14.0029 145.345 14.0029C145.517 8.56961 141.991 4.7503 134.765 2.54496C123.926 -0.763042 120.264 0.258023 122.095 1.89728C119.858 2.02826 109.833 5.27675 111.556 9.63982Z" fill="#4A4A4A"/>
<path d="M131.274 33.745L133.771 32.3174" stroke="#4A4A4A" stroke-linecap="round"/>
<path fill-rule="evenodd" clip-rule="evenodd" d="M126.013 57.1948C126.625 54.0557 128.378 51.445 131.273 49.3627C134.167 47.2805 137.233 45.3051 140.471 43.4365L143.907 47.4417L126.013 57.1948Z" fill="#1D70D3"/>
<path fill-rule="evenodd" clip-rule="evenodd" d="M113.633 36.1674C114.462 34.03 116.13 36.8117 116.121 38.3047C113.967 40.5055 112.803 38.3047 113.633 36.1674Z" fill="#D6DCFF"/>
<path fill-rule="evenodd" clip-rule="evenodd" d="M128.518 57.8418C133.119 56.5611 139.805 56.0846 139.805 63.405C139.805 68.2852 133.091 76.5198 119.664 88.1087L108.328 74.2083C118.72 64.1512 125.451 58.6957 128.518 57.8418Z" fill="#1D70D3"/>
<path d="M107.363 116.728L121.627 115.213" stroke="white" stroke-linecap="round" stroke-linejoin="round"/>
</svg>
