<svg width="215" height="294" viewBox="0 0 215 294" fill="none" xmlns="http://www.w3.org/2000/svg">
<path fill-rule="evenodd" clip-rule="evenodd" d="M85.1028 67.4675L86.6034 72.8825C84.3619 71.5017 82.5147 71.5355 81.0617 72.9839C78.8822 75.1566 81.0721 80.278 84.403 81.6534C86.6235 82.5703 88.3736 82.9869 89.6532 82.9032C92.6604 91.0821 95.3635 96.5039 97.7626 99.1687C100.162 101.833 104.421 104.328 110.54 106.653L129.069 105.441L128.217 92.4187C130.459 86.946 131.457 82.3248 131.21 78.555C134.235 77.4341 139.588 73.7484 138.213 66.8871C136.372 63.705 133.992 63.8607 131.072 67.3542L130.479 48.6175L109.961 41.4574L85.1028 67.4675Z" fill="white"/>
<path d="M85.0353 66.4318C88.2902 80.0053 91.5452 89.3312 94.8003 94.4097C97.0938 97.9879 99.8925 101.043 103.079 103.054M125.599 97.0833C127.598 94.1244 128.969 90.9086 129.852 88.3464C131.159 84.549 131.625 75.2306 131.25 60.3913" stroke="#4A4A4A" stroke-width="2"/>
<path d="M116.6 43.3822C127.13 42.6933 135.11 33.6226 134.424 23.1221C133.737 12.6217 124.643 4.66786 114.112 5.35672C103.582 6.04557 95.6017 15.1163 96.2886 25.6167C96.9754 36.1172 106.069 44.071 116.6 43.3822Z" fill="#4B4745"/>
<path d="M131.335 67.2818C133.342 64.4341 135.304 63.8818 137.221 65.6249C140.098 68.2394 137.101 78.2063 131.259 78.5885" stroke="#4A4A4A" stroke-width="2" stroke-linecap="round"/>
<path fill-rule="evenodd" clip-rule="evenodd" d="M85.9247 70.9647C100.763 65.8346 109.951 58.3136 113.491 48.4018C119.131 55.4337 125.094 60.0898 131.379 62.3702C132.56 56.8995 132.52 51.1405 131.257 45.0932C129.364 36.0223 122.275 30.0995 114.349 29.3375C105.723 23.4454 93.1006 27.9915 85.7674 42.7497C80.8786 52.5886 80.931 61.9935 85.9247 70.9647Z" fill="#4B4745"/>
<path d="M86.3933 72.9592C84.083 71.2098 82.0182 71.3448 80.1989 73.3644C77.47 76.3938 85.1215 83.9293 89.6497 82.8502" stroke="#4A4A4A" stroke-width="2" stroke-linecap="round"/>
<path d="M87.7701 77.235L82.7519 75.9199" stroke="#4A4A4A" stroke-width="2" stroke-linecap="round"/>
<path d="M131.375 72.0001L134.445 69.7531" stroke="#4A4A4A" stroke-width="2" stroke-linecap="round"/>
<path fill-rule="evenodd" clip-rule="evenodd" d="M193.573 180.507C195.927 190.913 195.301 199.908 191.694 207.491C186.285 218.867 143.611 242.643 129.88 246.411C116.15 250.179 90.7666 245.344 90.5802 242.495C90.3938 239.646 113.252 238.875 115.257 236.539C106.493 228.152 105.488 222.634 112.363 225.348C119.237 228.063 121.735 231.918 128.902 231.449L172.487 203.998L169.076 184.888L193.573 180.507Z" fill="white" stroke="#4A4A4A" stroke-width="2" stroke-linejoin="round"/>
<path d="M82.2448 61.8502C93.4017 53.3791 100.782 45.2163 104.386 37.3617" stroke="white" stroke-width="2"/>
<path fill-rule="evenodd" clip-rule="evenodd" d="M129.564 113.023C150.967 118.885 164.974 124.108 171.584 128.692C178.195 133.275 186.632 151.084 196.897 182.118L167.162 186.086L162.513 172.125L164.192 197.788L171.445 224.647L85.6571 250.909L85.4851 196.592L77.9094 189.902L67.2041 211.859L43.7729 198.36C49.0923 165.889 54.404 151.591 61.7294 143.352C69.0547 135.112 81.8811 126.3 100.208 116.914C99.3219 122.283 100.287 126.582 103.104 129.81C110.497 138.283 129.796 141.557 133.448 125.82C134.53 121.157 133.236 116.891 129.564 113.023Z" fill="#D37F1D"/>
<path d="M83.9624 67.1933C96.2784 59.5139 104.46 52.1594 108.507 45.1298" stroke="white" stroke-width="2"/>
<path d="M128.219 92.4436C128.913 103.051 129.361 109.91 129.565 113.023C129.768 116.135 130.972 119.009 133.176 121.645" stroke="#4A4A4A" stroke-width="2" stroke-linecap="round"/>
<path d="M105.586 63.1965C106.773 66.0857 107.491 69.4455 107.742 73.2759C108.118 79.0215 107.085 86.1066 107.908 87.2632C108.458 88.0342 110.134 87.9246 112.937 86.9343" stroke="#4A4A4A" stroke-width="2" stroke-linecap="round"/>
<path d="M94.5532 30.4611C104.624 25.4526 111.638 24.6457 115.596 28.0405C122.114 28.7202 126.869 32.4267 129.86 39.1602" stroke="white" stroke-width="2"/>
<path d="M121.634 78.5131C126.899 78.1687 130.889 73.6333 130.546 68.3831C130.202 63.1329 125.655 59.156 120.39 59.5004C115.125 59.8448 111.135 64.3802 111.478 69.6304C111.822 74.8806 116.369 78.8575 121.634 78.5131Z" stroke="#1D70D3" stroke-width="2"/>
<path d="M97.2071 81.475C102.472 81.1306 106.462 76.5952 106.119 71.345C105.776 66.0948 101.229 62.1179 95.9634 62.4623C90.698 62.8067 86.708 67.3421 87.0515 72.5923C87.3949 77.8425 91.9417 81.8194 97.2071 81.475Z" stroke="#1D70D3" stroke-width="2"/>
<path d="M105.334 68.1578C106.985 65.5587 108.98 65.2485 111.32 67.2274" stroke="#1D70D3" stroke-width="2" stroke-linecap="round"/>
<path d="M77.8379 160.368C74.2242 170.894 73.2845 178.451 75.0187 183.039C76.7529 187.627 80.2417 192.145 85.4853 196.592L85.1294 250.944" stroke="#4A4A4A" stroke-width="2" stroke-linecap="round"/>
<path d="M117.061 68.2709C119.357 65.6509 121.798 65.2399 124.384 67.0381" stroke="#4A4A4A" stroke-width="2" stroke-linecap="round"/>
<path d="M107.401 94.0381C109.544 95.0007 112.226 94.4408 115.447 92.3584" stroke="#4A4A4A" stroke-width="2" stroke-linecap="round"/>
<path d="M99.6365 70.1647C96.9954 68.4601 94.6028 68.9081 92.4589 71.5088" stroke="#4A4A4A" stroke-width="2" stroke-linecap="round"/>
<path fill-rule="evenodd" clip-rule="evenodd" d="M26.1179 131.996C34.7567 168.197 40.1434 189.184 42.2781 194.958C53.2784 224.71 71.2611 213.742 71 198.93C70.8259 189.056 60.9257 164.905 41.2993 126.479C42.4374 119.609 42.7642 113.68 42.2796 108.691C41.8688 104.46 41.5364 100.575 41.2826 97.0331L41.2826 97.0331C41.21 96.0206 40.3092 95.2789 39.2705 95.3764C39.2574 95.3777 39.2442 95.379 39.2311 95.3805C38.0952 95.5107 37.1679 96.3635 36.9648 97.4649L35.12 107.466L28.8451 87.4765C28.5344 86.4868 27.5107 85.8983 26.4588 86.1048C25.4625 86.3005 24.796 87.2442 24.9701 88.2128C24.9723 88.2251 24.9746 88.2373 24.9771 88.2494L28.4042 105.206L21.9569 87.3163C21.5972 86.3182 20.4848 85.799 19.4416 86.1424C18.3885 86.4891 17.7683 87.5664 18.0223 88.608L22.5106 107.02L15.9633 91.4733C15.4928 90.3561 14.2036 89.8127 13.0208 90.2331C11.8765 90.6399 11.262 91.8676 11.6484 92.9753C11.6521 92.9859 11.6559 92.9965 11.6598 93.007L18.1914 110.79L12.0475 101.642C11.3353 100.582 9.88537 100.27 8.74119 100.931C7.61212 101.583 7.20463 102.987 7.82625 104.082C12.9185 113.058 16.1141 119.008 17.413 121.932C18.8049 125.065 21.7065 128.42 26.1179 131.996Z" fill="white" stroke="#4B4745" stroke-width="2" stroke-linejoin="round"/>
<path d="M34.9948 105.277C34.6062 108.144 33.9077 110.622 32.8991 112.713C31.3862 115.849 25.3376 117.764 24.5177 122.683" stroke="#4A4A4A" stroke-width="2"/>
<path d="M17.9604 111.489C17.8024 110.609 21.4029 105.216 30.7003 104.863" stroke="#4A4A4A" stroke-width="2"/>
<path fill-rule="evenodd" clip-rule="evenodd" d="M164.35 206.462C170.596 208.29 182.156 209.551 187.091 226.522C190.381 237.837 193.928 249.596 197.732 261.8C201.645 264.772 204.439 266.659 206.114 267.461C210.407 269.517 213.917 269.528 213.714 271.045C213.231 274.651 197.875 272.961 191.24 273.395C186.816 273.685 184.579 270.349 184.528 263.387C178.611 252.266 173.397 240.743 168.887 228.819L162.881 229.053C158.233 220.525 158.723 212.995 164.35 206.462Z" fill="white" stroke="#4A4A4A" stroke-width="2" stroke-linejoin="round"/>
<path fill-rule="evenodd" clip-rule="evenodd" d="M149.023 230.4L164.272 229.403C156.808 218.472 164.135 206.534 165.612 206.438C166.597 206.373 160.45 204.922 147.171 202.083L142.95 195.293C114.09 199.102 99.2379 201.033 98.395 201.088C97.1307 201.171 95.6943 238.486 110.022 240.713C119.575 242.197 125.893 240.61 128.978 235.952L149.023 230.4Z" fill="#5C8B83"/>
<path d="M114.536 210.711L130.589 213.316" stroke="white" stroke-width="2"/>
<path fill-rule="evenodd" clip-rule="evenodd" d="M136.747 214.674C142.996 216.547 146.245 219.519 150.38 232.817C153.136 241.682 156.32 252.589 159.932 265.537C162.944 268.212 165.635 272.122 168.006 277.268C170.477 282.632 166.051 284.364 163.718 279.645C164.467 284.452 160.106 283.624 158.082 283.757C153.658 284.046 150.252 279.593 147.863 270.397C141.932 259.051 136.703 247.297 132.177 235.135L126.333 236.706C120.905 226.786 121.808 219.095 129.04 213.634C132.09 213.702 134.659 214.049 136.747 214.674Z" fill="white" stroke="#4A4A4A" stroke-width="2" stroke-linejoin="round"/>
<path d="M188.547 263.232C188.778 266.069 190.049 267.412 192.359 267.261" stroke="#4A4A4A" stroke-width="2" stroke-linecap="round"/>
<path d="M161.69 283.116C161.283 282.671 160.757 281.597 160.111 279.894" stroke="#4A4A4A" stroke-width="2" stroke-linecap="round"/>
<path d="M158.142 283.349L157.095 280.292" stroke="#4A4A4A" stroke-width="2" stroke-linecap="round"/>
<path d="M154.841 282.966L154.663 280.25" stroke="#4A4A4A" stroke-width="2" stroke-linecap="round"/>
<path fill-rule="evenodd" clip-rule="evenodd" d="M109.52 148.82C103.83 150.231 100.057 151.492 98.1986 152.604C92.9587 155.741 90.6823 160.348 89.8643 165.927C89.2226 170.304 89.7773 176.887 93.7038 181.401C94.4991 186.702 95.7909 196.511 97.5793 210.83L147.171 202.083C143.398 185.307 140.772 174.087 139.293 168.424L152.996 168.672L153.256 154.102C145.449 152.245 139.148 150.542 134.355 148.993C131.958 148.218 123.68 148.161 109.52 148.82Z" fill="#FFCC00"/>
<path d="M139.293 168.424L140.467 157.673" stroke="#626366" stroke-width="2"/>
<path fill-rule="evenodd" clip-rule="evenodd" d="M153.978 155.664L160.984 156.293L175.899 123.045C175.712 120.175 175.538 117.518 175.378 115.073C175.241 112.976 175.395 110.562 175.84 107.828L175.84 107.828C175.973 107.015 176.648 106.401 177.469 106.348C178.255 106.296 178.954 106.846 179.089 107.624L180.443 115.388L185.336 103.495C185.638 102.759 186.479 102.409 187.213 102.712C187.224 102.716 187.234 102.721 187.244 102.725C188.028 103.071 188.458 103.923 188.272 104.759L186.569 112.411L190.801 104.529C191.233 103.725 192.191 103.362 193.046 103.679C193.874 103.985 194.301 104.901 194.005 105.733L190.81 114.71L196.281 108.465C196.828 107.841 197.767 107.755 198.418 108.269C199.07 108.784 199.206 109.719 198.729 110.398L192.6 119.122L198.853 114.834C199.442 114.431 200.243 114.558 200.678 115.125C201.126 115.707 201.081 116.529 200.573 117.059C195.2 122.67 190.889 126.567 187.638 128.75C184.413 136.717 175.498 168.367 169.13 170.438C164.885 171.819 158.872 171.727 151.093 170.16L153.978 155.664Z" fill="white" stroke="#4A4A4A" stroke-width="2" stroke-linejoin="round"/>
<path d="M115.898 151.447C118.458 157.629 121.745 160.301 125.757 159.462C129.77 158.623 131.38 156.072 130.586 151.809" stroke="#626366" stroke-width="2"/>
<path d="M99.8896 123.822L108.03 126.066" stroke="#4A4A4A" stroke-width="2" stroke-linecap="round"/>
<path fill-rule="evenodd" clip-rule="evenodd" d="M109.809 148.72C103.833 143.687 103.639 136.822 102.798 132.777C99.1756 132.408 96.3531 126.451 97.9748 121.672C99.0559 118.486 100.888 117.805 103.47 119.628C102.436 110.58 107.161 105.713 117.644 105.027C133.37 103.998 137.875 112.778 136.69 124.709C135.505 136.641 138.428 135.361 137.856 142.525C137.284 149.69 127.663 156.943 115.776 152.201" fill="white"/>
<path d="M109.809 148.72C103.833 143.687 103.639 136.822 102.798 132.777C99.1756 132.408 96.3531 126.451 97.9748 121.672C99.0559 118.486 100.888 117.805 103.47 119.628C102.436 110.58 107.161 105.713 117.644 105.027C133.37 103.998 137.875 112.778 136.69 124.709C135.505 136.641 138.428 135.361 137.856 142.525C137.284 149.69 127.663 156.943 115.776 152.201" stroke="#4A4A4A" stroke-width="2" stroke-linecap="round" stroke-linejoin="round"/>
<path fill-rule="evenodd" clip-rule="evenodd" d="M103.771 121.906C105.903 124.486 105.835 132.299 107.473 132.62C109.111 132.94 107.367 120.381 108.39 119.636C109.413 118.891 112.757 116.949 113.89 112.651C118.367 116.268 124.516 120.205 137.76 117.715C138.026 111.573 135.45 106.305 130.034 101.91C121.909 95.319 108.911 97.263 103.482 104.482C97.1946 105.393 95.3143 112.14 97.841 124.725C99.683 121.068 101.66 120.128 103.771 121.906Z" fill="#4A4A4A"/>
<path d="M135.238 118.766C130.697 117.288 127.391 114.598 125.32 110.693" stroke="white" stroke-width="2"/>
<path d="M126.74 119.658C122.413 117.64 119.461 114.567 117.883 110.44" stroke="white" stroke-width="2"/>
<path d="M128.198 131.274C128.72 133.9 129.513 135.612 130.576 136.408C131.639 137.205 131.34 138.083 129.678 139.041" stroke="#4A4A4A" stroke-width="2" stroke-linecap="round"/>
<path d="M131.454 126.312C133.17 125.126 134.733 125.015 136.142 125.981" stroke="#4A4A4A" stroke-width="2" stroke-linecap="round"/>
<path d="M116.635 127.55C118.444 126.194 120.187 126.08 121.864 127.208" stroke="#4A4A4A" stroke-width="2" stroke-linecap="round"/>
<path d="M102.616 127.493L99.9551 125.632" stroke="#4A4A4A" stroke-width="2" stroke-linecap="round"/>
<path fill-rule="evenodd" clip-rule="evenodd" d="M131.569 143.038C128.537 143.371 126.218 143.262 124.612 142.711C125.335 145.033 126.425 146.147 127.882 146.051C129.34 145.956 130.569 144.951 131.569 143.038Z" fill="#FF9B6D"/>
<path d="M164.626 202.54C177.037 201.728 186.442 191.038 185.632 178.662C184.823 166.287 174.105 156.913 161.694 157.725C149.283 158.536 139.878 169.227 140.687 181.602C141.497 193.978 152.214 203.352 164.626 202.54Z" fill="#0ACC94"/>
<path fill-rule="evenodd" clip-rule="evenodd" d="M115.704 179.017L118.544 184.418L154.899 198.77C157.873 196.997 160.336 195.772 162.289 195.096C163.891 194.54 165.469 193.912 167.025 193.21C167.616 192.943 168.314 193.145 168.672 193.687C169.03 194.23 168.93 194.956 168.438 195.381L165.621 197.816L179.27 196.923C174.339 203.614 169.591 207.109 165.026 207.408C160.46 207.707 156.807 207.438 154.066 206.602C131.783 203.968 118.104 201.207 113.03 198.318C107.955 195.429 104.105 192.195 101.48 188.618" fill="white"/>
<path d="M115.704 179.017L118.544 184.418L154.899 198.77C157.873 196.997 160.336 195.772 162.289 195.096C163.891 194.54 165.469 193.912 167.025 193.21V193.21C167.616 192.943 168.314 193.145 168.672 193.687C169.03 194.23 168.93 194.956 168.438 195.381L165.621 197.816L179.27 196.923C174.339 203.614 169.591 207.109 165.026 207.408C160.46 207.707 156.807 207.438 154.066 206.602C131.783 203.968 118.104 201.207 113.03 198.318C107.955 195.429 104.105 192.195 101.48 188.618" stroke="#4A4A4A" stroke-width="2" stroke-linejoin="round"/>
<path d="M101.988 156.723C105.888 160.622 109.731 165.833 113.516 172.356L117.054 178.14L101.479 188.618L95.6947 182.029" stroke="#626366" stroke-width="2"/>
<path fill-rule="evenodd" clip-rule="evenodd" d="M132.352 240.269C121.029 232.3 114.055 228.402 111.431 228.573C108.807 228.745 110.411 231.482 116.242 236.786C99.9065 239.818 93.6225 241.741 97.3899 242.556C101.157 243.37 104.778 243.375 108.252 242.571" fill="white"/>
<path d="M132.352 240.269C121.029 232.3 114.055 228.402 111.431 228.573C108.807 228.745 110.411 231.482 116.242 236.786C99.9065 239.818 93.6225 241.741 97.3899 242.556C101.157 243.37 104.778 243.375 108.252 242.571" stroke="#4A4A4A" stroke-width="2" stroke-linejoin="round"/>
<path d="M180.442 115.388L184.456 122.139" stroke="#4A4A4A" stroke-width="2" stroke-linecap="round"/>
</svg>
