<svg width="321" height="332" viewBox="0 0 321 332" fill="none" xmlns="http://www.w3.org/2000/svg">
<mask id="mask0_1_326" style="mask-type:alpha" maskUnits="userSpaceOnUse" x="9" y="11" width="292" height="316">
<path d="M297.593 167.554C290.833 246.413 348.343 385.788 142.405 299.965C-2.01926 239.778 5.25981 221.929 12.0207 143.071C18.7817 64.2119 88.1901 5.76505 167.049 12.526C245.908 19.2869 304.354 88.6954 297.593 167.554Z" fill="#C4C4C4"/>
</mask>
<g mask="url(#mask0_1_326)">
<path fill-rule="evenodd" clip-rule="evenodd" d="M235.077 124.291C228.868 145.31 225.04 157.481 223.593 160.804C216.14 177.927 205.609 170.758 206.178 162.031C206.557 156.212 213.192 142.351 226.083 120.447C225.588 116.35 225.556 112.839 225.986 109.915C226.351 107.435 226.659 105.156 226.911 103.077L226.911 103.077C226.982 102.482 227.546 102.08 228.169 102.178C228.177 102.179 228.185 102.181 228.192 102.182C228.873 102.303 229.408 102.842 229.5 103.499L230.334 109.471L234.67 97.9228C234.884 97.3513 235.517 97.0441 236.145 97.2068C236.74 97.361 237.115 97.9434 236.984 98.5078C236.982 98.515 236.98 98.5221 236.979 98.5291L234.443 108.399L238.824 98.0961C239.068 97.5215 239.753 97.2587 240.372 97.5018C240.997 97.7473 241.341 98.4066 241.159 99.011L237.944 109.698L242.32 100.781C242.634 100.141 243.426 99.8705 244.127 100.165C244.805 100.449 245.142 101.197 244.878 101.835C244.875 101.841 244.873 101.847 244.87 101.853L240.441 112.09L244.397 106.932C244.856 106.335 245.738 106.207 246.409 106.641C247.071 107.07 247.278 107.914 246.873 108.536C243.555 113.633 241.465 117.018 240.601 118.693C239.676 120.487 237.834 122.353 235.077 124.291Z" fill="white" stroke="#4B4745" stroke-width="1.54743" stroke-linejoin="round"/>
<path d="M230.35 108.571C230.518 110.235 230.882 111.69 231.443 112.936C232.283 114.804 235.889 116.169 236.27 119.032" stroke="#4B4745" stroke-width="1.54743"/>
<path d="M240.746 112.39C240.864 111.882 238.931 108.606 233.531 108.077" stroke="#4B4745" stroke-width="1.54743"/>
<path fill-rule="evenodd" clip-rule="evenodd" d="M79.1538 99.2109C81.8573 121.194 83.6449 133.967 84.5166 137.528C89.0086 155.881 100.179 150.727 100.978 141.972C101.511 136.135 97.2996 121.167 88.3439 97.0672C89.4474 93.0984 90.0184 89.6249 90.0567 86.6468C90.0892 84.1215 90.1453 81.8052 90.2249 79.6977L90.2249 79.6977C90.2477 79.0953 89.771 78.5922 89.1602 78.5738C89.1525 78.5736 89.1447 78.5734 89.137 78.5734C88.4675 78.5671 87.8731 79.0021 87.6842 79.6367L85.9683 85.4011L83.5995 73.1516C83.4823 72.5453 82.9243 72.1236 82.2989 72.1685C81.7064 72.211 81.2579 72.7188 81.297 73.3026C81.2975 73.3099 81.298 73.3173 81.2987 73.3247L82.2046 83.5769L79.6007 72.5534C79.4555 71.9387 78.8414 71.5513 78.2123 71.6776C77.577 71.805 77.1469 72.3949 77.2278 73.0276L78.6579 84.2161L75.8454 74.567C75.6434 73.8739 74.9279 73.4593 74.2126 73.6208C73.5203 73.7771 73.0838 74.4562 73.2376 75.1376C73.2391 75.1441 73.2406 75.1505 73.2421 75.1569L75.902 86.1239L72.9133 80.2787C72.567 79.6014 71.7431 79.3115 71.0348 79.6176C70.3357 79.9198 70.0084 80.7176 70.2998 81.4092C72.6874 87.0757 74.1653 90.8187 74.7335 92.6383C75.3424 94.5881 76.8159 96.7789 79.1538 99.2109Z" fill="white" stroke="#4B4745" stroke-width="1.54743" stroke-linejoin="round"/>
<path d="M86.2847 84.6856C85.8634 86.3201 85.2843 87.7077 84.5473 88.8484C83.4418 90.5594 79.73 91.242 78.9163 94.036" stroke="#4B4745" stroke-width="1.54743"/>
<path d="M75.5576 86.711C75.5217 86.1683 77.9343 83.1881 83.3146 83.6792" stroke="#4B4745" stroke-width="1.54743"/>
<path fill-rule="evenodd" clip-rule="evenodd" d="M55.8139 125.466C75.772 135.376 81.2766 149.364 72.3275 167.43C81.3685 158.503 95.9786 155.372 116.158 158.035C94.854 147.752 81.5793 140.371 76.3339 135.892C71.0884 131.413 64.2484 127.938 55.8139 125.466Z" fill="#1D70D3"/>
<path fill-rule="evenodd" clip-rule="evenodd" d="M127.578 136.255L133.736 146.358L132.041 156.014C114.738 160.457 100.11 157.353 88.1569 146.702C76.2035 136.052 65.0861 131.279 54.8046 132.384C56.9479 126.907 55.1495 123.305 49.4094 121.579C59.993 122.411 70.3283 126.835 80.4153 134.852C90.5023 142.869 106.223 143.337 127.578 136.255Z" fill="white" stroke="#1D70D3" stroke-width="1.54743" stroke-linecap="round" stroke-linejoin="round"/>
<path d="M147.902 145.789C136.795 151.026 126.567 152.149 117.217 149.158" stroke="#1D70D3" stroke-width="1.54743"/>
<path fill-rule="evenodd" clip-rule="evenodd" d="M126.651 110.742L123.372 104.753L117.828 91.2773L123.569 84.5487C122.8 83.5429 121.37 83.2879 120.376 83.9792C120.293 84.0372 120.214 84.101 120.14 84.1701L118.072 86.1107L118.356 78.7704C118.38 78.1684 117.977 77.6051 117.379 77.4037C116.866 77.2308 116.328 77.4876 116.178 77.9772C116.17 78.0037 116.164 78.0307 116.158 78.0579L114.992 83.7588L114.473 81.5274C114.131 80.0598 112.643 79.0725 111.148 79.3221C110.744 79.3896 110.366 79.5452 110.041 79.7773C107.945 81.2752 107.037 83.8893 107.727 86.4321L115.711 115.82L126.651 110.742Z" fill="white" stroke="#4B4745" stroke-width="1.54743" stroke-linejoin="round"/>
<path d="M118.365 86.0916L113.156 88.3732" stroke="#4B4745" stroke-width="1.54743" stroke-linecap="round"/>
<path fill-rule="evenodd" clip-rule="evenodd" d="M162.471 116.715L166.385 110.079L172.94 97.3039L168.424 89.5463C169.327 88.6878 170.754 88.6985 171.61 89.5703C171.682 89.6435 171.749 89.7216 171.809 89.8041L173.512 92.1177L174.384 84.7609C174.456 84.1576 174.935 83.6716 175.546 83.5819C176.071 83.5048 176.553 83.8598 176.621 84.3747C176.625 84.4026 176.627 84.4306 176.628 84.4588L176.868 90.3473L177.72 88.223C178.281 86.8258 179.879 86.1187 181.29 86.6437C181.672 86.7857 182.015 87.0105 182.293 87.3016C184.077 89.1644 184.485 91.9378 183.32 94.2739L170.663 119.649L162.471 116.715Z" fill="white" stroke="#4B4745" stroke-width="1.54743" stroke-linejoin="round"/>
<path d="M173.391 92.1104L178.111 95.3625" stroke="#4B4745" stroke-width="1.54743" stroke-linecap="round"/>
<path fill-rule="evenodd" clip-rule="evenodd" d="M152.911 105.253L153.455 116.954L137.803 127.227C131.668 123.562 127.884 120.54 126.452 118.161C125.019 115.781 127.242 110.73 133.119 103.006C137.986 101.402 141.82 100.759 144.62 101.077C147.421 101.394 150.184 102.787 152.911 105.253Z" fill="white"/>
<path fill-rule="evenodd" clip-rule="evenodd" d="M153.834 103.313C153.834 103.313 158.995 110.691 155.464 110.346C153.11 110.116 149.785 107.986 145.487 103.958C147.891 106.854 147.79 108.174 145.184 107.919C142.578 107.665 139.9 106.851 137.15 105.479C137.219 109.487 136.288 111.861 134.36 112.602C132.431 113.344 131.844 115.305 132.599 118.485C130.509 115.25 129.049 114.732 128.22 116.933C124.354 113.256 124.377 108.869 124.525 106.93C124.715 104.456 125.607 102.914 127.202 102.305C126.486 98.3883 128.58 96.2354 133.485 95.8458C140.843 95.2615 155.226 100.471 157.152 102.688C159.079 104.904 153.834 103.313 153.834 103.313Z" fill="#4A4B50"/>
<path fill-rule="evenodd" clip-rule="evenodd" d="M130.236 119.175L127.169 113.825L119.055 91.3419C113.188 92.4962 109.218 93.7989 107.146 95.25C110.514 108.442 113.011 117.376 114.638 122.052C116.264 126.729 118.963 132.189 122.735 138.432L124.252 165.213C127.34 167.66 130.013 167.508 132.273 164.757C134.532 162.007 136.994 155.908 139.657 146.462L162.281 137.536C165.662 131.867 168.626 127.475 171.171 124.357C173.716 121.24 176.913 114.113 180.761 102.978L171.191 98.0529L160.709 117.109L157.082 121.804C148.57 125.922 142.907 127.843 140.095 127.567C138.074 127.369 135.75 126.677 133.24 123.874C132.584 123.143 131.583 121.576 130.236 119.175Z" fill="#FFCC00"/>
<path fill-rule="evenodd" clip-rule="evenodd" d="M153.023 109.82C153.154 114.208 153.463 117.232 153.948 118.89C154.675 121.376 155.535 128.357 148.267 129.238C143.422 129.825 138.438 128.136 133.314 124.171" fill="white"/>
<path d="M153.023 109.82C153.154 114.208 153.463 117.232 153.948 118.89C154.675 121.376 155.535 128.357 148.267 129.238C143.422 129.825 138.438 128.136 133.314 124.171" stroke="#4B4745" stroke-width="1.16058" stroke-linecap="round" stroke-linejoin="round"/>
<path fill-rule="evenodd" clip-rule="evenodd" d="M150.82 122.529L146.746 123.087C147.327 124.09 148.121 124.64 149.128 124.739C150.136 124.837 150.7 124.1 150.82 122.529Z" fill="#4B4745"/>
<path d="M148.356 115.413C148.564 116.423 149.256 117.317 150.432 118.094C151.608 118.871 151.34 119.582 149.628 120.225" stroke="#4B4745" stroke-width="1.16058" stroke-linecap="round" stroke-linejoin="round"/>
<path d="M148.897 113.873C150.191 112.471 151.43 112.36 152.616 113.542" stroke="#4A4A4A" stroke-linecap="round"/>
<path d="M139.57 114.734C140.79 113.327 142.031 113.226 143.291 114.431" stroke="#4A4A4A" stroke-linecap="round"/>
<path fill-rule="evenodd" clip-rule="evenodd" d="M159.431 181.488C156.479 192.055 151.558 196.553 144.669 194.982C134.334 192.626 128.431 176.282 128.489 175.561C128.528 175.08 129.638 173.26 131.82 170.102L159.431 181.488Z" fill="white"/>
<path fill-rule="evenodd" clip-rule="evenodd" d="M168.383 256.408C164.723 304.148 162.434 334.015 161.515 346.008C160.595 358.002 158.094 390.631 154.011 443.897L134.689 442.016L136.178 292.23L132.121 291.835C119.889 334.147 111.473 361.041 106.874 372.519C102.275 383.997 93.2645 405.382 79.843 436.674L59.7519 434.717C75.6294 378.604 85.5185 343.8 89.4193 330.307C92.7252 318.871 93.4013 298.049 99.85 263.354C100.624 259.191 103.236 251.823 107.686 241.248L168.383 256.408Z" fill="#323443"/>
<path d="M113.918 245.342C107.594 254.836 103.85 267.104 102.684 282.146C100.937 304.71 93.648 336.184 90.2873 347.099C88.0468 354.375 79.2865 384.21 64.0063 436.602" stroke="white" stroke-width="1.54743" stroke-linecap="round" stroke-linejoin="round"/>
<path d="M135.824 291.239C138.91 291.303 140.104 295.757 139.407 304.598C138.71 313.439 137.77 359.392 136.585 442.456" stroke="white" stroke-width="1.54743" stroke-linecap="round" stroke-linejoin="round"/>
<path fill-rule="evenodd" clip-rule="evenodd" d="M119.913 166.461L103.065 144.398L92.3661 99.9233L76.1033 107.61C80.1596 137.487 83.0036 154.665 84.6351 159.145C85.5974 161.787 89.0323 167.132 94.9398 175.181C97.6789 178.913 102.984 185.819 110.854 195.899C108.369 218.95 107.663 235.399 108.738 245.245C128.766 256.141 149.27 259.988 170.25 256.787L177.856 206.539C195.034 195.652 207.05 187.643 213.903 182.513C220.755 177.383 227.801 160.65 235.039 132.313L221.753 126.642L200.698 163.278L171.088 178.597L157.599 182.146C155.7 189.432 152.237 193.335 147.208 193.855C142.179 194.376 137.29 189.214 132.542 178.371L119.913 166.461Z" fill="#6B74C1"/>
<path fill-rule="evenodd" clip-rule="evenodd" d="M163.996 168.017C170.211 167.701 174.181 169.604 175.907 173.726C177.632 177.848 181.128 186.327 186.396 199.163C177.135 199.927 171.225 202.886 168.665 208.039C165.964 196.65 164.76 189.118 165.055 185.443C165.349 181.767 163.669 180.153 160.015 180.601L163.996 168.017Z" fill="#5C8B83"/>
<path fill-rule="evenodd" clip-rule="evenodd" d="M139.911 200.334C137.425 204.707 136.353 208.246 136.696 210.951C137.039 213.659 138.44 213.148 140.9 209.419C139.334 215.278 140.165 217.724 143.396 216.757C146.626 215.79 147.372 211.134 145.633 202.788C149.391 201.943 153.348 199.328 157.503 194.945C161.658 190.561 162.635 185.651 160.433 180.214L155.525 187.374C150.468 193.748 145.743 195.109 141.349 191.458C136.955 187.808 133.663 181.591 131.471 172.808C128.026 175.518 126.695 177.7 127.48 179.355C128.564 181.639 136.586 198.411 139.911 200.334Z" fill="#D37F1D"/>
<path d="M146.181 203.073C144.547 201.466 143.101 200.843 141.842 201.205" stroke="#4B4745" stroke-width="1.54743" stroke-linecap="round"/>
<path d="M131.05 180.847L136.899 192.533" stroke="#4B4745" stroke-width="1.54743" stroke-linecap="round"/>
<path d="M158.719 182.711C158.327 187.824 154.941 192.232 148.56 195.935" stroke="#4B4745" stroke-width="1.54743" stroke-linecap="round"/>
<path fill-rule="evenodd" clip-rule="evenodd" d="M130.219 175.323C131.812 171.409 132.935 168.473 133.588 166.516C131.616 166.323 130.065 159.615 130.72 155.91C131.156 153.441 133.647 152.951 138.192 154.443L138.76 147.022L141.873 142.707L150.436 141.866L166.401 144.287L168.095 153.935C166.519 158.667 165.338 163.511 164.551 168.468C163.37 175.903 160.893 179.346 159.879 181.561C158.865 183.775 158.598 187.961 150.203 186.37C144.606 185.309 140.656 181.23 138.35 174.133" fill="white"/>
<path d="M130.219 175.323C131.812 171.409 132.935 168.473 133.588 166.516C131.616 166.323 130.065 159.615 130.72 155.91C131.156 153.441 133.647 152.951 138.192 154.443L138.76 147.022L141.873 142.707L150.436 141.866L166.401 144.287L168.095 153.935C166.519 158.667 165.338 163.511 164.551 168.468C163.37 175.903 160.893 179.346 159.879 181.561C158.865 183.775 158.598 187.961 150.203 186.37C144.606 185.309 140.656 181.23 138.35 174.133" stroke="#4B4745" stroke-width="1.54743" stroke-linecap="round"/>
<path d="M160.059 158.547C161.389 157.592 162.645 157.602 163.826 158.577" stroke="#4A4A4A" stroke-width="2" stroke-linecap="round"/>
<path d="M150.122 158.379C148.822 157.177 147.489 157.205 146.124 158.461" stroke="#4A4A4A" stroke-width="2" stroke-linecap="round"/>
<path d="M157.973 156.228C156.609 158.721 156.063 160.74 156.335 162.283C156.743 164.599 157.954 169.098 155.827 168.893C154.409 168.756 153.534 168.241 153.202 167.35" stroke="#4B4745" stroke-width="1.54743" stroke-linecap="round"/>
<path fill-rule="evenodd" clip-rule="evenodd" d="M130.94 163.534C125.384 160.71 121.542 161.135 119.415 164.81C116.224 170.323 118.212 180.508 117.656 187.763C117.285 192.6 118.268 197.696 120.605 203.052C121.101 197.222 123.158 193.921 126.776 193.15C130.394 192.378 133.043 192.636 134.721 193.923C133.366 186.07 132.773 181.045 132.941 178.851C133.109 176.656 133.692 172.714 134.689 167.026" fill="#5C8B83"/>
<path d="M128.682 198.723C128.682 198.723 123.51 208.233 120.325 202.379" stroke="white" stroke-width="1.54743" stroke-linecap="round" stroke-linejoin="round"/>
<path fill-rule="evenodd" clip-rule="evenodd" d="M136.926 156.198C135.888 153.401 133.067 152.332 130.558 155.576C128.049 158.821 131.06 162.629 131.209 164.302C131.357 165.974 133.82 167.588 135.436 166.23" fill="white"/>
<path d="M136.926 156.198C135.888 153.401 133.067 152.332 130.558 155.576C128.049 158.821 131.06 162.629 131.209 164.302C131.357 165.974 133.82 167.588 135.436 166.23" stroke="#4B4745" stroke-width="1.54743" stroke-linecap="round"/>
<path d="M151 186.768C150.446 188.096 149.786 188.912 149.019 189.218" stroke="#4B4745" stroke-width="1.54743" stroke-linecap="round"/>
<path fill-rule="evenodd" clip-rule="evenodd" d="M137.012 158.21C137.273 161.774 137.36 164.12 137.274 165.248C137.145 166.94 135.378 173.254 137.346 177.296C139.315 181.337 143.223 185.93 149.701 187.117C156.178 188.304 157.923 187.016 159.32 184.149C160.251 182.237 161.357 179.057 162.639 174.608C161.396 176.041 160.613 176.533 160.289 176.085C159.803 175.412 160.677 173.081 157.234 171.574C153.791 170.068 149.075 168.83 146.557 169.695C144.878 170.272 143.683 171.079 142.97 172.116C143.4 168.161 143.167 165.816 142.269 165.081C140.921 163.979 138.876 164.358 139.221 159.843C139.451 156.834 139.756 153.995 140.135 151.327C142.883 151.215 145.816 150.197 148.933 148.274C147.715 150.341 147.639 151.334 148.705 151.252C149.772 151.171 152.589 150.173 157.156 148.257C154.215 151.103 153.966 152.353 156.409 152.006C158.852 151.66 161.944 150.53 165.685 148.616C166.737 151.707 167.44 153.392 167.793 153.669C167.644 154.078 167.257 155.323 166.632 157.404C167.945 156.617 169.659 154.318 171.775 150.509C174.949 144.794 174.877 142.625 172.466 141.482C174.265 137.981 171.525 136.273 164.245 136.361C153.325 136.492 144.976 129.319 139.489 136.299C134.572 134.71 132.86 141.015 134.35 155.212C135.095 155.723 135.628 156.16 135.949 156.521C136.27 156.883 136.624 157.446 137.012 158.21Z" fill="#4B4745"/>
<path fill-rule="evenodd" clip-rule="evenodd" d="M156.635 173.922L149.239 171.711C149.459 174.8 150.427 176.554 152.143 176.972C153.86 177.391 155.357 176.374 156.635 173.922Z" fill="white"/>
<path fill-rule="evenodd" clip-rule="evenodd" d="M131.399 184.644C127.747 186.555 125.144 189.742 123.588 194.204C122.682 194.946 121.782 196.513 121.542 198.166C121.169 200.725 122.016 204.717 124.122 206.189C126.433 207.805 128.836 204.188 131.331 195.338L131.399 184.644Z" fill="#4B4745"/>
<path fill-rule="evenodd" clip-rule="evenodd" d="M124.669 195.017C125.119 194.608 126.449 184.085 133.333 185.593C140.217 187.101 132.541 198.525 131.305 201.535C130.069 204.544 130.267 208.69 125.163 207.071C120.058 205.451 124.219 195.426 124.669 195.017Z" fill="white"/>
<path d="M136.037 190.804L128.974 188.018" stroke="#D6DCFF" stroke-width="1.54743"/>
<path d="M134.943 195.075L127.881 192.289" stroke="#D6DCFF" stroke-width="1.54743"/>
<path d="M132.406 199.221L125.344 196.435" stroke="#D6DCFF" stroke-width="1.54743"/>
<path d="M130.59 203.43L123.527 200.644" stroke="#D6DCFF" stroke-width="1.54743"/>
<path fill-rule="evenodd" clip-rule="evenodd" d="M187.277 195.427C184.571 194.581 181.216 195.815 177.213 199.131C171.208 204.104 170.679 204.282 169.508 206.96C169.615 209.779 170.582 214.04 171.735 214.146C172.504 214.216 177.684 207.976 187.277 195.427Z" fill="#4B4745"/>
<path fill-rule="evenodd" clip-rule="evenodd" d="M174.196 205.431C179.065 201.184 183.909 192.956 188.141 195.803C190.247 197.219 188.897 200.449 187.525 203.487C186.153 206.525 182.84 208.485 181.669 209.256C179.339 210.788 177.163 215.357 173.428 215.016C169.692 214.674 169.326 209.678 174.196 205.431Z" fill="white"/>
<path d="M187.422 202.864L181.598 198.112" stroke="#D6DCFF" stroke-width="1.54743"/>
<path d="M185.094 206.267L179.27 201.515" stroke="#D6DCFF" stroke-width="1.54743"/>
<path d="M181.537 209.099L175.712 204.347" stroke="#D6DCFF" stroke-width="1.54743"/>
<path d="M177.713 212.604L172.482 208.079" stroke="#D6DCFF" stroke-width="1.54743"/>
<path d="M140.066 211.508L142.129 204.429" stroke="#4B4745" stroke-width="1.54743" stroke-linecap="round"/>
</g>
</svg>
